<?xml version="1.0" encoding="UTF-8" ?>
<svg version="1.1" width="256" height="256" xmlns="http://www.w3.org/2000/svg" shape-rendering="crispEdges">
<rect x="96" y="0" width="8" height="8" fill="#222222" />
<rect x="104" y="0" width="8" height="8" fill="#222222" />
<rect x="112" y="0" width="8" height="8" fill="#222222" />
<rect x="120" y="0" width="8" height="8" fill="#222222" />
<rect x="128" y="0" width="8" height="8" fill="#222222" />
<rect x="136" y="0" width="8" height="8" fill="#222222" />
<rect x="144" y="0" width="8" height="8" fill="#222222" />
<rect x="80" y="8" width="8" height="8" fill="#222222" />
<rect x="88" y="8" width="8" height="8" fill="#222222" />
<rect x="96" y="8" width="8" height="8" fill="#222222" />
<rect x="104" y="8" width="8" height="8" fill="#222222" />
<rect x="112" y="8" width="8" height="8" fill="#222222" />
<rect x="120" y="8" width="8" height="8" fill="#222222" />
<rect x="128" y="8" width="8" height="8" fill="#222222" />
<rect x="136" y="8" width="8" height="8" fill="#222222" />
<rect x="144" y="8" width="8" height="8" fill="#222222" />
<rect x="152" y="8" width="8" height="8" fill="#222222" />
<rect x="160" y="8" width="8" height="8" fill="#222222" />
<rect x="168" y="8" width="8" height="8" fill="#222222" />
<rect x="64" y="16" width="8" height="8" fill="#222222" />
<rect x="72" y="16" width="8" height="8" fill="#222222" />
<rect x="80" y="16" width="8" height="8" fill="#222222" />
<rect x="88" y="16" width="8" height="8" fill="#222222" />
<rect x="96" y="16" width="8" height="8" fill="#739F9F" />
<rect x="104" y="16" width="8" height="8" fill="#739F9F" />
<rect x="112" y="16" width="8" height="8" fill="#739F9F" />
<rect x="120" y="16" width="8" height="8" fill="#739F9F" />
<rect x="128" y="16" width="8" height="8" fill="#739F9F" />
<rect x="136" y="16" width="8" height="8" fill="#739F9F" />
<rect x="144" y="16" width="8" height="8" fill="#222222" />
<rect x="152" y="16" width="8" height="8" fill="#222222" />
<rect x="160" y="16" width="8" height="8" fill="#222222" />
<rect x="168" y="16" width="8" height="8" fill="#222222" />
<rect x="176" y="16" width="8" height="8" fill="#222222" />
<rect x="184" y="16" width="8" height="8" fill="#222222" />
<rect x="56" y="24" width="8" height="8" fill="#222222" />
<rect x="64" y="24" width="8" height="8" fill="#222222" />
<rect x="72" y="24" width="8" height="8" fill="#222222" />
<rect x="80" y="24" width="8" height="8" fill="#A6A952" />
<rect x="88" y="24" width="8" height="8" fill="#739F9F" />
<rect x="96" y="24" width="8" height="8" fill="#739F9F" />
<rect x="104" y="24" width="8" height="8" fill="#739F9F" />
<rect x="112" y="24" width="8" height="8" fill="#739F9F" />
<rect x="120" y="24" width="8" height="8" fill="#222222" />
<rect x="128" y="24" width="8" height="8" fill="#222222" />
<rect x="136" y="24" width="8" height="8" fill="#222222" />
<rect x="144" y="24" width="8" height="8" fill="#222222" />
<rect x="152" y="24" width="8" height="8" fill="#222222" />
<rect x="160" y="24" width="8" height="8" fill="#222222" />
<rect x="168" y="24" width="8" height="8" fill="#222222" />
<rect x="176" y="24" width="8" height="8" fill="#222222" />
<rect x="184" y="24" width="8" height="8" fill="#222222" />
<rect x="192" y="24" width="8" height="8" fill="#222222" />
<rect x="40" y="32" width="8" height="8" fill="#222222" />
<rect x="48" y="32" width="8" height="8" fill="#222222" />
<rect x="56" y="32" width="8" height="8" fill="#222222" />
<rect x="64" y="32" width="8" height="8" fill="#222222" />
<rect x="72" y="32" width="8" height="8" fill="#A6A952" />
<rect x="80" y="32" width="8" height="8" fill="#739F9F" />
<rect x="88" y="32" width="8" height="8" fill="#739F9F" />
<rect x="96" y="32" width="8" height="8" fill="#739F9F" />
<rect x="104" y="32" width="8" height="8" fill="#222222" />
<rect x="112" y="32" width="8" height="8" fill="#222222" />
<rect x="120" y="32" width="8" height="8" fill="#222222" />
<rect x="128" y="32" width="8" height="8" fill="#222222" />
<rect x="136" y="32" width="8" height="8" fill="#222222" />
<rect x="144" y="32" width="8" height="8" fill="#222222" />
<rect x="152" y="32" width="8" height="8" fill="#222222" />
<rect x="160" y="32" width="8" height="8" fill="#222222" />
<rect x="168" y="32" width="8" height="8" fill="#222222" />
<rect x="176" y="32" width="8" height="8" fill="#222222" />
<rect x="184" y="32" width="8" height="8" fill="#222222" />
<rect x="192" y="32" width="8" height="8" fill="#222222" />
<rect x="200" y="32" width="8" height="8" fill="#222222" />
<rect x="32" y="40" width="8" height="8" fill="#222222" />
<rect x="40" y="40" width="8" height="8" fill="#222222" />
<rect x="48" y="40" width="8" height="8" fill="#222222" />
<rect x="56" y="40" width="8" height="8" fill="#222222" />
<rect x="64" y="40" width="8" height="8" fill="#A6A952" />
<rect x="72" y="40" width="8" height="8" fill="#739F9F" />
<rect x="80" y="40" width="8" height="8" fill="#739F9F" />
<rect x="88" y="40" width="8" height="8" fill="#739F9F" />
<rect x="96" y="40" width="8" height="8" fill="#222222" />
<rect x="104" y="40" width="8" height="8" fill="#222222" />
<rect x="112" y="40" width="8" height="8" fill="#222222" />
<rect x="120" y="40" width="8" height="8" fill="#222222" />
<rect x="128" y="40" width="8" height="8" fill="#222222" />
<rect x="136" y="40" width="8" height="8" fill="#222222" />
<rect x="192" y="40" width="8" height="8" fill="#222222" />
<rect x="200" y="40" width="8" height="8" fill="#222222" />
<rect x="32" y="48" width="8" height="8" fill="#222222" />
<rect x="40" y="48" width="8" height="8" fill="#222222" />
<rect x="48" y="48" width="8" height="8" fill="#222222" />
<rect x="56" y="48" width="8" height="8" fill="#A6A952" />
<rect x="64" y="48" width="8" height="8" fill="#739F9F" />
<rect x="72" y="48" width="8" height="8" fill="#739F9F" />
<rect x="80" y="48" width="8" height="8" fill="#739F9F" />
<rect x="88" y="48" width="8" height="8" fill="#222222" />
<rect x="96" y="48" width="8" height="8" fill="#222222" />
<rect x="104" y="48" width="8" height="8" fill="#222222" />
<rect x="112" y="48" width="8" height="8" fill="#222222" />
<rect x="24" y="56" width="8" height="8" fill="#222222" />
<rect x="32" y="56" width="8" height="8" fill="#222222" />
<rect x="40" y="56" width="8" height="8" fill="#222222" />
<rect x="48" y="56" width="8" height="8" fill="#A6A952" />
<rect x="56" y="56" width="8" height="8" fill="#739F9F" />
<rect x="64" y="56" width="8" height="8" fill="#739F9F" />
<rect x="72" y="56" width="8" height="8" fill="#739F9F" />
<rect x="80" y="56" width="8" height="8" fill="#222222" />
<rect x="88" y="56" width="8" height="8" fill="#222222" />
<rect x="96" y="56" width="8" height="8" fill="#222222" />
<rect x="16" y="64" width="8" height="8" fill="#222222" />
<rect x="24" y="64" width="8" height="8" fill="#222222" />
<rect x="32" y="64" width="8" height="8" fill="#222222" />
<rect x="40" y="64" width="8" height="8" fill="#A6A952" />
<rect x="48" y="64" width="8" height="8" fill="#A6A952" />
<rect x="56" y="64" width="8" height="8" fill="#739F9F" />
<rect x="64" y="64" width="8" height="8" fill="#739F9F" />
<rect x="72" y="64" width="8" height="8" fill="#222222" />
<rect x="80" y="64" width="8" height="8" fill="#222222" />
<rect x="88" y="64" width="8" height="8" fill="#222222" />
<rect x="16" y="72" width="8" height="8" fill="#222222" />
<rect x="24" y="72" width="8" height="8" fill="#222222" />
<rect x="32" y="72" width="8" height="8" fill="#222222" />
<rect x="40" y="72" width="8" height="8" fill="#A6A952" />
<rect x="48" y="72" width="8" height="8" fill="#739F9F" />
<rect x="56" y="72" width="8" height="8" fill="#739F9F" />
<rect x="64" y="72" width="8" height="8" fill="#739F9F" />
<rect x="72" y="72" width="8" height="8" fill="#222222" />
<rect x="80" y="72" width="8" height="8" fill="#222222" />
<rect x="88" y="72" width="8" height="8" fill="#222222" />
<rect x="8" y="80" width="8" height="8" fill="#222222" />
<rect x="16" y="80" width="8" height="8" fill="#222222" />
<rect x="24" y="80" width="8" height="8" fill="#222222" />
<rect x="32" y="80" width="8" height="8" fill="#A6A952" />
<rect x="40" y="80" width="8" height="8" fill="#A6A952" />
<rect x="48" y="80" width="8" height="8" fill="#739F9F" />
<rect x="56" y="80" width="8" height="8" fill="#739F9F" />
<rect x="64" y="80" width="8" height="8" fill="#222222" />
<rect x="72" y="80" width="8" height="8" fill="#222222" />
<rect x="80" y="80" width="8" height="8" fill="#222222" />
<rect x="8" y="88" width="8" height="8" fill="#222222" />
<rect x="16" y="88" width="8" height="8" fill="#222222" />
<rect x="24" y="88" width="8" height="8" fill="#222222" />
<rect x="32" y="88" width="8" height="8" fill="#A6A952" />
<rect x="40" y="88" width="8" height="8" fill="#739F9F" />
<rect x="48" y="88" width="8" height="8" fill="#739F9F" />
<rect x="56" y="88" width="8" height="8" fill="#739F9F" />
<rect x="64" y="88" width="8" height="8" fill="#222222" />
<rect x="72" y="88" width="8" height="8" fill="#222222" />
<rect x="80" y="88" width="8" height="8" fill="#222222" />
<rect x="8" y="96" width="8" height="8" fill="#222222" />
<rect x="16" y="96" width="8" height="8" fill="#222222" />
<rect x="24" y="96" width="8" height="8" fill="#222222" />
<rect x="32" y="96" width="8" height="8" fill="#A6A952" />
<rect x="40" y="96" width="8" height="8" fill="#739F9F" />
<rect x="48" y="96" width="8" height="8" fill="#739F9F" />
<rect x="56" y="96" width="8" height="8" fill="#739F9F" />
<rect x="64" y="96" width="8" height="8" fill="#222222" />
<rect x="72" y="96" width="8" height="8" fill="#222222" />
<rect x="80" y="96" width="8" height="8" fill="#222222" />
<rect x="0" y="104" width="8" height="8" fill="#222222" />
<rect x="8" y="104" width="8" height="8" fill="#222222" />
<rect x="16" y="104" width="8" height="8" fill="#222222" />
<rect x="24" y="104" width="8" height="8" fill="#A6A952" />
<rect x="32" y="104" width="8" height="8" fill="#A6A952" />
<rect x="40" y="104" width="8" height="8" fill="#739F9F" />
<rect x="48" y="104" width="8" height="8" fill="#739F9F" />
<rect x="56" y="104" width="8" height="8" fill="#739F9F" />
<rect x="64" y="104" width="8" height="8" fill="#739F9F" />
<rect x="72" y="104" width="8" height="8" fill="#222222" />
<rect x="80" y="104" width="8" height="8" fill="#222222" />
<rect x="88" y="104" width="8" height="8" fill="#222222" />
<rect x="0" y="112" width="8" height="8" fill="#222222" />
<rect x="8" y="112" width="8" height="8" fill="#222222" />
<rect x="16" y="112" width="8" height="8" fill="#222222" />
<rect x="24" y="112" width="8" height="8" fill="#A6A952" />
<rect x="32" y="112" width="8" height="8" fill="#A6A952" />
<rect x="40" y="112" width="8" height="8" fill="#739F9F" />
<rect x="48" y="112" width="8" height="8" fill="#739F9F" />
<rect x="56" y="112" width="8" height="8" fill="#739F9F" />
<rect x="64" y="112" width="8" height="8" fill="#739F9F" />
<rect x="72" y="112" width="8" height="8" fill="#222222" />
<rect x="80" y="112" width="8" height="8" fill="#222222" />
<rect x="88" y="112" width="8" height="8" fill="#222222" />
<rect x="0" y="120" width="8" height="8" fill="#222222" />
<rect x="8" y="120" width="8" height="8" fill="#222222" />
<rect x="16" y="120" width="8" height="8" fill="#222222" />
<rect x="24" y="120" width="8" height="8" fill="#A6A952" />
<rect x="32" y="120" width="8" height="8" fill="#A6A952" />
<rect x="40" y="120" width="8" height="8" fill="#739F9F" />
<rect x="48" y="120" width="8" height="8" fill="#739F9F" />
<rect x="56" y="120" width="8" height="8" fill="#739F9F" />
<rect x="64" y="120" width="8" height="8" fill="#739F9F" />
<rect x="72" y="120" width="8" height="8" fill="#739F9F" />
<rect x="80" y="120" width="8" height="8" fill="#222222" />
<rect x="88" y="120" width="8" height="8" fill="#222222" />
<rect x="96" y="120" width="8" height="8" fill="#222222" />
<rect x="104" y="120" width="8" height="8" fill="#222222" />
<rect x="0" y="128" width="8" height="8" fill="#222222" />
<rect x="8" y="128" width="8" height="8" fill="#222222" />
<rect x="16" y="128" width="8" height="8" fill="#222222" />
<rect x="24" y="128" width="8" height="8" fill="#A6A952" />
<rect x="32" y="128" width="8" height="8" fill="#A6A952" />
<rect x="40" y="128" width="8" height="8" fill="#739F9F" />
<rect x="48" y="128" width="8" height="8" fill="#739F9F" />
<rect x="56" y="128" width="8" height="8" fill="#739F9F" />
<rect x="64" y="128" width="8" height="8" fill="#739F9F" />
<rect x="72" y="128" width="8" height="8" fill="#739F9F" />
<rect x="80" y="128" width="8" height="8" fill="#739F9F" />
<rect x="88" y="128" width="8" height="8" fill="#222222" />
<rect x="96" y="128" width="8" height="8" fill="#222222" />
<rect x="104" y="128" width="8" height="8" fill="#222222" />
<rect x="112" y="128" width="8" height="8" fill="#222222" />
<rect x="120" y="128" width="8" height="8" fill="#222222" />
<rect x="0" y="136" width="8" height="8" fill="#222222" />
<rect x="8" y="136" width="8" height="8" fill="#222222" />
<rect x="16" y="136" width="8" height="8" fill="#222222" />
<rect x="24" y="136" width="8" height="8" fill="#A6A952" />
<rect x="32" y="136" width="8" height="8" fill="#A6A952" />
<rect x="40" y="136" width="8" height="8" fill="#739F9F" />
<rect x="48" y="136" width="8" height="8" fill="#739F9F" />
<rect x="56" y="136" width="8" height="8" fill="#739F9F" />
<rect x="64" y="136" width="8" height="8" fill="#739F9F" />
<rect x="72" y="136" width="8" height="8" fill="#739F9F" />
<rect x="80" y="136" width="8" height="8" fill="#739F9F" />
<rect x="88" y="136" width="8" height="8" fill="#739F9F" />
<rect x="96" y="136" width="8" height="8" fill="#222222" />
<rect x="104" y="136" width="8" height="8" fill="#222222" />
<rect x="112" y="136" width="8" height="8" fill="#222222" />
<rect x="120" y="136" width="8" height="8" fill="#222222" />
<rect x="128" y="136" width="8" height="8" fill="#222222" />
<rect x="136" y="136" width="8" height="8" fill="#222222" />
<rect x="144" y="136" width="8" height="8" fill="#222222" />
<rect x="152" y="136" width="8" height="8" fill="#222222" />
<rect x="0" y="144" width="8" height="8" fill="#222222" />
<rect x="8" y="144" width="8" height="8" fill="#222222" />
<rect x="16" y="144" width="8" height="8" fill="#222222" />
<rect x="24" y="144" width="8" height="8" fill="#A6A952" />
<rect x="32" y="144" width="8" height="8" fill="#A6A952" />
<rect x="40" y="144" width="8" height="8" fill="#739F9F" />
<rect x="48" y="144" width="8" height="8" fill="#739F9F" />
<rect x="56" y="144" width="8" height="8" fill="#739F9F" />
<rect x="64" y="144" width="8" height="8" fill="#739F9F" />
<rect x="72" y="144" width="8" height="8" fill="#739F9F" />
<rect x="80" y="144" width="8" height="8" fill="#739F9F" />
<rect x="88" y="144" width="8" height="8" fill="#739F9F" />
<rect x="96" y="144" width="8" height="8" fill="#739F9F" />
<rect x="104" y="144" width="8" height="8" fill="#739F9F" />
<rect x="112" y="144" width="8" height="8" fill="#222222" />
<rect x="120" y="144" width="8" height="8" fill="#222222" />
<rect x="128" y="144" width="8" height="8" fill="#222222" />
<rect x="136" y="144" width="8" height="8" fill="#222222" />
<rect x="144" y="144" width="8" height="8" fill="#222222" />
<rect x="152" y="144" width="8" height="8" fill="#222222" />
<rect x="160" y="144" width="8" height="8" fill="#222222" />
<rect x="168" y="144" width="8" height="8" fill="#222222" />
<rect x="176" y="144" width="8" height="8" fill="#222222" />
<rect x="184" y="144" width="8" height="8" fill="#222222" />
<rect x="8" y="152" width="8" height="8" fill="#222222" />
<rect x="16" y="152" width="8" height="8" fill="#222222" />
<rect x="24" y="152" width="8" height="8" fill="#222222" />
<rect x="32" y="152" width="8" height="8" fill="#A6A952" />
<rect x="40" y="152" width="8" height="8" fill="#A6A952" />
<rect x="48" y="152" width="8" height="8" fill="#739F9F" />
<rect x="56" y="152" width="8" height="8" fill="#739F9F" />
<rect x="64" y="152" width="8" height="8" fill="#739F9F" />
<rect x="72" y="152" width="8" height="8" fill="#739F9F" />
<rect x="80" y="152" width="8" height="8" fill="#739F9F" />
<rect x="88" y="152" width="8" height="8" fill="#739F9F" />
<rect x="96" y="152" width="8" height="8" fill="#739F9F" />
<rect x="104" y="152" width="8" height="8" fill="#739F9F" />
<rect x="112" y="152" width="8" height="8" fill="#739F9F" />
<rect x="120" y="152" width="8" height="8" fill="#739F9F" />
<rect x="128" y="152" width="8" height="8" fill="#222222" />
<rect x="136" y="152" width="8" height="8" fill="#222222" />
<rect x="144" y="152" width="8" height="8" fill="#222222" />
<rect x="152" y="152" width="8" height="8" fill="#222222" />
<rect x="160" y="152" width="8" height="8" fill="#222222" />
<rect x="168" y="152" width="8" height="8" fill="#222222" />
<rect x="176" y="152" width="8" height="8" fill="#222222" />
<rect x="184" y="152" width="8" height="8" fill="#222222" />
<rect x="192" y="152" width="8" height="8" fill="#222222" />
<rect x="200" y="152" width="8" height="8" fill="#222222" />
<rect x="8" y="160" width="8" height="8" fill="#222222" />
<rect x="16" y="160" width="8" height="8" fill="#222222" />
<rect x="24" y="160" width="8" height="8" fill="#222222" />
<rect x="32" y="160" width="8" height="8" fill="#A6A952" />
<rect x="40" y="160" width="8" height="8" fill="#A6A952" />
<rect x="48" y="160" width="8" height="8" fill="#739F9F" />
<rect x="56" y="160" width="8" height="8" fill="#739F9F" />
<rect x="64" y="160" width="8" height="8" fill="#739F9F" />
<rect x="72" y="160" width="8" height="8" fill="#739F9F" />
<rect x="80" y="160" width="8" height="8" fill="#739F9F" />
<rect x="88" y="160" width="8" height="8" fill="#739F9F" />
<rect x="96" y="160" width="8" height="8" fill="#739F9F" />
<rect x="104" y="160" width="8" height="8" fill="#739F9F" />
<rect x="112" y="160" width="8" height="8" fill="#739F9F" />
<rect x="120" y="160" width="8" height="8" fill="#739F9F" />
<rect x="128" y="160" width="8" height="8" fill="#739F9F" />
<rect x="136" y="160" width="8" height="8" fill="#739F9F" />
<rect x="144" y="160" width="8" height="8" fill="#739F9F" />
<rect x="152" y="160" width="8" height="8" fill="#739F9F" />
<rect x="160" y="160" width="8" height="8" fill="#222222" />
<rect x="168" y="160" width="8" height="8" fill="#222222" />
<rect x="176" y="160" width="8" height="8" fill="#222222" />
<rect x="184" y="160" width="8" height="8" fill="#222222" />
<rect x="192" y="160" width="8" height="8" fill="#222222" />
<rect x="200" y="160" width="8" height="8" fill="#222222" />
<rect x="208" y="160" width="8" height="8" fill="#222222" />
<rect x="8" y="168" width="8" height="8" fill="#222222" />
<rect x="16" y="168" width="8" height="8" fill="#222222" />
<rect x="24" y="168" width="8" height="8" fill="#222222" />
<rect x="32" y="168" width="8" height="8" fill="#A6A952" />
<rect x="40" y="168" width="8" height="8" fill="#A6A952" />
<rect x="48" y="168" width="8" height="8" fill="#739F9F" />
<rect x="56" y="168" width="8" height="8" fill="#739F9F" />
<rect x="64" y="168" width="8" height="8" fill="#739F9F" />
<rect x="72" y="168" width="8" height="8" fill="#739F9F" />
<rect x="80" y="168" width="8" height="8" fill="#739F9F" />
<rect x="88" y="168" width="8" height="8" fill="#739F9F" />
<rect x="96" y="168" width="8" height="8" fill="#739F9F" />
<rect x="104" y="168" width="8" height="8" fill="#739F9F" />
<rect x="112" y="168" width="8" height="8" fill="#739F9F" />
<rect x="120" y="168" width="8" height="8" fill="#739F9F" />
<rect x="128" y="168" width="8" height="8" fill="#739F9F" />
<rect x="136" y="168" width="8" height="8" fill="#739F9F" />
<rect x="144" y="168" width="8" height="8" fill="#739F9F" />
<rect x="152" y="168" width="8" height="8" fill="#739F9F" />
<rect x="160" y="168" width="8" height="8" fill="#739F9F" />
<rect x="168" y="168" width="8" height="8" fill="#739F9F" />
<rect x="176" y="168" width="8" height="8" fill="#739F9F" />
<rect x="184" y="168" width="8" height="8" fill="#739F9F" />
<rect x="192" y="168" width="8" height="8" fill="#222222" />
<rect x="200" y="168" width="8" height="8" fill="#222222" />
<rect x="208" y="168" width="8" height="8" fill="#222222" />
<rect x="16" y="176" width="8" height="8" fill="#222222" />
<rect x="24" y="176" width="8" height="8" fill="#222222" />
<rect x="32" y="176" width="8" height="8" fill="#222222" />
<rect x="40" y="176" width="8" height="8" fill="#A6A952" />
<rect x="48" y="176" width="8" height="8" fill="#A6A952" />
<rect x="56" y="176" width="8" height="8" fill="#739F9F" />
<rect x="64" y="176" width="8" height="8" fill="#739F9F" />
<rect x="72" y="176" width="8" height="8" fill="#739F9F" />
<rect x="80" y="176" width="8" height="8" fill="#739F9F" />
<rect x="88" y="176" width="8" height="8" fill="#739F9F" />
<rect x="96" y="176" width="8" height="8" fill="#739F9F" />
<rect x="104" y="176" width="8" height="8" fill="#739F9F" />
<rect x="112" y="176" width="8" height="8" fill="#739F9F" />
<rect x="120" y="176" width="8" height="8" fill="#739F9F" />
<rect x="128" y="176" width="8" height="8" fill="#222222" />
<rect x="136" y="176" width="8" height="8" fill="#222222" />
<rect x="144" y="176" width="8" height="8" fill="#739F9F" />
<rect x="152" y="176" width="8" height="8" fill="#739F9F" />
<rect x="160" y="176" width="8" height="8" fill="#739F9F" />
<rect x="168" y="176" width="8" height="8" fill="#739F9F" />
<rect x="176" y="176" width="8" height="8" fill="#739F9F" />
<rect x="184" y="176" width="8" height="8" fill="#739F9F" />
<rect x="192" y="176" width="8" height="8" fill="#739F9F" />
<rect x="200" y="176" width="8" height="8" fill="#222222" />
<rect x="208" y="176" width="8" height="8" fill="#222222" />
<rect x="216" y="176" width="8" height="8" fill="#222222" />
<rect x="16" y="184" width="8" height="8" fill="#222222" />
<rect x="24" y="184" width="8" height="8" fill="#222222" />
<rect x="32" y="184" width="8" height="8" fill="#222222" />
<rect x="40" y="184" width="8" height="8" fill="#A6A952" />
<rect x="48" y="184" width="8" height="8" fill="#A6A952" />
<rect x="56" y="184" width="8" height="8" fill="#739F9F" />
<rect x="64" y="184" width="8" height="8" fill="#739F9F" />
<rect x="72" y="184" width="8" height="8" fill="#739F9F" />
<rect x="80" y="184" width="8" height="8" fill="#739F9F" />
<rect x="88" y="184" width="8" height="8" fill="#739F9F" />
<rect x="96" y="184" width="8" height="8" fill="#739F9F" />
<rect x="104" y="184" width="8" height="8" fill="#739F9F" />
<rect x="112" y="184" width="8" height="8" fill="#739F9F" />
<rect x="120" y="184" width="8" height="8" fill="#739F9F" />
<rect x="128" y="184" width="8" height="8" fill="#222222" />
<rect x="136" y="184" width="8" height="8" fill="#222222" />
<rect x="144" y="184" width="8" height="8" fill="#739F9F" />
<rect x="152" y="184" width="8" height="8" fill="#739F9F" />
<rect x="160" y="184" width="8" height="8" fill="#739F9F" />
<rect x="168" y="184" width="8" height="8" fill="#739F9F" />
<rect x="176" y="184" width="8" height="8" fill="#739F9F" />
<rect x="184" y="184" width="8" height="8" fill="#739F9F" />
<rect x="192" y="184" width="8" height="8" fill="#739F9F" />
<rect x="200" y="184" width="8" height="8" fill="#222222" />
<rect x="208" y="184" width="8" height="8" fill="#222222" />
<rect x="216" y="184" width="8" height="8" fill="#222222" />
<rect x="24" y="192" width="8" height="8" fill="#222222" />
<rect x="32" y="192" width="8" height="8" fill="#222222" />
<rect x="40" y="192" width="8" height="8" fill="#222222" />
<rect x="48" y="192" width="8" height="8" fill="#A6A952" />
<rect x="56" y="192" width="8" height="8" fill="#A6A952" />
<rect x="64" y="192" width="8" height="8" fill="#739F9F" />
<rect x="72" y="192" width="8" height="8" fill="#739F9F" />
<rect x="80" y="192" width="8" height="8" fill="#739F9F" />
<rect x="88" y="192" width="8" height="8" fill="#739F9F" />
<rect x="96" y="192" width="8" height="8" fill="#739F9F" />
<rect x="104" y="192" width="8" height="8" fill="#739F9F" />
<rect x="112" y="192" width="8" height="8" fill="#739F9F" />
<rect x="120" y="192" width="8" height="8" fill="#739F9F" />
<rect x="128" y="192" width="8" height="8" fill="#739F9F" />
<rect x="136" y="192" width="8" height="8" fill="#739F9F" />
<rect x="144" y="192" width="8" height="8" fill="#739F9F" />
<rect x="152" y="192" width="8" height="8" fill="#739F9F" />
<rect x="160" y="192" width="8" height="8" fill="#739F9F" />
<rect x="168" y="192" width="8" height="8" fill="#739F9F" />
<rect x="176" y="192" width="8" height="8" fill="#739F9F" />
<rect x="184" y="192" width="8" height="8" fill="#739F9F" />
<rect x="192" y="192" width="8" height="8" fill="#A6A952" />
<rect x="200" y="192" width="8" height="8" fill="#222222" />
<rect x="208" y="192" width="8" height="8" fill="#222222" />
<rect x="216" y="192" width="8" height="8" fill="#222222" />
<rect x="32" y="200" width="8" height="8" fill="#222222" />
<rect x="40" y="200" width="8" height="8" fill="#222222" />
<rect x="48" y="200" width="8" height="8" fill="#222222" />
<rect x="56" y="200" width="8" height="8" fill="#A6A952" />
<rect x="64" y="200" width="8" height="8" fill="#A6A952" />
<rect x="72" y="200" width="8" height="8" fill="#A6A952" />
<rect x="80" y="200" width="8" height="8" fill="#739F9F" />
<rect x="88" y="200" width="8" height="8" fill="#739F9F" />
<rect x="96" y="200" width="8" height="8" fill="#739F9F" />
<rect x="104" y="200" width="8" height="8" fill="#739F9F" />
<rect x="112" y="200" width="8" height="8" fill="#739F9F" />
<rect x="120" y="200" width="8" height="8" fill="#739F9F" />
<rect x="128" y="200" width="8" height="8" fill="#739F9F" />
<rect x="136" y="200" width="8" height="8" fill="#739F9F" />
<rect x="144" y="200" width="8" height="8" fill="#739F9F" />
<rect x="152" y="200" width="8" height="8" fill="#739F9F" />
<rect x="160" y="200" width="8" height="8" fill="#739F9F" />
<rect x="168" y="200" width="8" height="8" fill="#739F9F" />
<rect x="176" y="200" width="8" height="8" fill="#739F9F" />
<rect x="184" y="200" width="8" height="8" fill="#A6A952" />
<rect x="192" y="200" width="8" height="8" fill="#A6A952" />
<rect x="200" y="200" width="8" height="8" fill="#222222" />
<rect x="208" y="200" width="8" height="8" fill="#222222" />
<rect x="216" y="200" width="8" height="8" fill="#222222" />
<rect x="32" y="208" width="8" height="8" fill="#222222" />
<rect x="40" y="208" width="8" height="8" fill="#222222" />
<rect x="48" y="208" width="8" height="8" fill="#222222" />
<rect x="56" y="208" width="8" height="8" fill="#222222" />
<rect x="64" y="208" width="8" height="8" fill="#A6A952" />
<rect x="72" y="208" width="8" height="8" fill="#A6A952" />
<rect x="80" y="208" width="8" height="8" fill="#A6A952" />
<rect x="88" y="208" width="8" height="8" fill="#A6A952" />
<rect x="96" y="208" width="8" height="8" fill="#A6A952" />
<rect x="104" y="208" width="8" height="8" fill="#739F9F" />
<rect x="112" y="208" width="8" height="8" fill="#739F9F" />
<rect x="120" y="208" width="8" height="8" fill="#739F9F" />
<rect x="128" y="208" width="8" height="8" fill="#739F9F" />
<rect x="136" y="208" width="8" height="8" fill="#739F9F" />
<rect x="144" y="208" width="8" height="8" fill="#739F9F" />
<rect x="152" y="208" width="8" height="8" fill="#A6A952" />
<rect x="160" y="208" width="8" height="8" fill="#A6A952" />
<rect x="168" y="208" width="8" height="8" fill="#A6A952" />
<rect x="176" y="208" width="8" height="8" fill="#A6A952" />
<rect x="184" y="208" width="8" height="8" fill="#A6A952" />
<rect x="192" y="208" width="8" height="8" fill="#222222" />
<rect x="200" y="208" width="8" height="8" fill="#222222" />
<rect x="208" y="208" width="8" height="8" fill="#222222" />
<rect x="40" y="216" width="8" height="8" fill="#222222" />
<rect x="48" y="216" width="8" height="8" fill="#222222" />
<rect x="56" y="216" width="8" height="8" fill="#222222" />
<rect x="64" y="216" width="8" height="8" fill="#222222" />
<rect x="72" y="216" width="8" height="8" fill="#222222" />
<rect x="80" y="216" width="8" height="8" fill="#A6A952" />
<rect x="88" y="216" width="8" height="8" fill="#A6A952" />
<rect x="96" y="216" width="8" height="8" fill="#A6A952" />
<rect x="104" y="216" width="8" height="8" fill="#A6A952" />
<rect x="112" y="216" width="8" height="8" fill="#A6A952" />
<rect x="120" y="216" width="8" height="8" fill="#A6A952" />
<rect x="128" y="216" width="8" height="8" fill="#A6A952" />
<rect x="136" y="216" width="8" height="8" fill="#A6A952" />
<rect x="144" y="216" width="8" height="8" fill="#A6A952" />
<rect x="152" y="216" width="8" height="8" fill="#A6A952" />
<rect x="160" y="216" width="8" height="8" fill="#A6A952" />
<rect x="168" y="216" width="8" height="8" fill="#A6A952" />
<rect x="176" y="216" width="8" height="8" fill="#222222" />
<rect x="184" y="216" width="8" height="8" fill="#222222" />
<rect x="192" y="216" width="8" height="8" fill="#222222" />
<rect x="200" y="216" width="8" height="8" fill="#222222" />
<rect x="56" y="224" width="8" height="8" fill="#222222" />
<rect x="64" y="224" width="8" height="8" fill="#222222" />
<rect x="72" y="224" width="8" height="8" fill="#222222" />
<rect x="80" y="224" width="8" height="8" fill="#222222" />
<rect x="88" y="224" width="8" height="8" fill="#222222" />
<rect x="96" y="224" width="8" height="8" fill="#222222" />
<rect x="104" y="224" width="8" height="8" fill="#A6A952" />
<rect x="112" y="224" width="8" height="8" fill="#A6A952" />
<rect x="120" y="224" width="8" height="8" fill="#A6A952" />
<rect x="128" y="224" width="8" height="8" fill="#A6A952" />
<rect x="136" y="224" width="8" height="8" fill="#A6A952" />
<rect x="144" y="224" width="8" height="8" fill="#A6A952" />
<rect x="152" y="224" width="8" height="8" fill="#222222" />
<rect x="160" y="224" width="8" height="8" fill="#222222" />
<rect x="168" y="224" width="8" height="8" fill="#222222" />
<rect x="176" y="224" width="8" height="8" fill="#222222" />
<rect x="184" y="224" width="8" height="8" fill="#222222" />
<rect x="192" y="224" width="8" height="8" fill="#222222" />
<rect x="64" y="232" width="8" height="8" fill="#222222" />
<rect x="72" y="232" width="8" height="8" fill="#222222" />
<rect x="80" y="232" width="8" height="8" fill="#222222" />
<rect x="88" y="232" width="8" height="8" fill="#222222" />
<rect x="96" y="232" width="8" height="8" fill="#222222" />
<rect x="104" y="232" width="8" height="8" fill="#222222" />
<rect x="112" y="232" width="8" height="8" fill="#222222" />
<rect x="120" y="232" width="8" height="8" fill="#222222" />
<rect x="128" y="232" width="8" height="8" fill="#222222" />
<rect x="136" y="232" width="8" height="8" fill="#222222" />
<rect x="144" y="232" width="8" height="8" fill="#222222" />
<rect x="152" y="232" width="8" height="8" fill="#222222" />
<rect x="160" y="232" width="8" height="8" fill="#222222" />
<rect x="168" y="232" width="8" height="8" fill="#222222" />
<rect x="176" y="232" width="8" height="8" fill="#222222" />
<rect x="184" y="232" width="8" height="8" fill="#222222" />
<rect x="80" y="240" width="8" height="8" fill="#222222" />
<rect x="88" y="240" width="8" height="8" fill="#222222" />
<rect x="96" y="240" width="8" height="8" fill="#222222" />
<rect x="104" y="240" width="8" height="8" fill="#222222" />
<rect x="112" y="240" width="8" height="8" fill="#222222" />
<rect x="120" y="240" width="8" height="8" fill="#222222" />
<rect x="128" y="240" width="8" height="8" fill="#222222" />
<rect x="136" y="240" width="8" height="8" fill="#222222" />
<rect x="144" y="240" width="8" height="8" fill="#222222" />
<rect x="152" y="240" width="8" height="8" fill="#222222" />
<rect x="160" y="240" width="8" height="8" fill="#222222" />
<rect x="168" y="240" width="8" height="8" fill="#222222" />
<rect x="104" y="248" width="8" height="8" fill="#222222" />
<rect x="112" y="248" width="8" height="8" fill="#222222" />
<rect x="120" y="248" width="8" height="8" fill="#222222" />
<rect x="128" y="248" width="8" height="8" fill="#222222" />
<rect x="136" y="248" width="8" height="8" fill="#222222" />
<rect x="144" y="248" width="8" height="8" fill="#222222" />
</svg>